<?xml version="1.0" encoding="utf-8"?>
<!-- Generator: Adobe Illustrator 17.1.0, SVG Export Plug-In . SVG Version: 6.00 Build 0)  -->
<!DOCTYPE svg PUBLIC "-//W3C//DTD SVG 1.1//EN" "http://www.w3.org/Graphics/SVG/1.1/DTD/svg11.dtd">
<svg version="1.1" xmlns="http://www.w3.org/2000/svg" xmlns:xlink="http://www.w3.org/1999/xlink" x="0px" y="0px" width="37px"
	 height="37px" viewBox="0 0 37 37" enable-background="new 0 0 37 37" xml:space="preserve">
<g id="Layer_1">
	<polygon fill="#ADADAD" points="5,0 5,4 0,4 0,34 3,34 3,37 34,37 34,34 37,34 37,3 34,3 34,0 	"/>
	<polygon fill="#FFFFFF" points="3,0 3,3 0,3 0,31 3,31 3,34 31,34 31,31 34,31 34,3 31,3 31,0 	"/>
</g>
<g id="Layer_2">
	<polyline fill="#363434" points="28,16 26,16 26,14 24,14 24,12 22,12 22,14 24,14 24,16 6,16 6,18 24,18 24,20 22,20 22,22 24,22 
		24,20 26,20 26,18 28,18 	"/>
</g>
</svg>
